<svg width="68" height="16" viewBox="0 0 68 16" fill="none" xmlns="http://www.w3.org/2000/svg">
<path d="M6.79968 15.1478C6.7997 15.1478 6.79972 15.1478 6.79974 15.1478M6.79968 15.1478L6.79965 15.1478L6.79993 15.1475C6.79993 15.1475 6.79985 15.1476 6.79978 15.1478M6.79968 15.1478L6.79972 15.1479M6.79968 15.1478C6.79957 15.1479 6.7995 15.1479 6.7995 15.1479L6.7997 15.1479M6.79974 15.1478C6.79975 15.1478 6.79977 15.1478 6.79978 15.1478M6.79974 15.1478C6.79973 15.1478 6.79972 15.1478 6.79972 15.1479M6.79974 15.1478L6.80352 15.1516L6.7997 15.1479M6.79978 15.1478C6.80006 15.1476 6.80055 15.1473 6.80122 15.147C6.8023 15.1466 6.80308 15.1465 6.80352 15.1465C6.80397 15.1465 6.80474 15.1466 6.80583 15.147C6.80658 15.1473 6.80711 15.1476 6.80737 15.1478L6.79972 15.1479M6.79978 15.1478C6.79976 15.1478 6.79974 15.1478 6.79972 15.1479M6.79972 15.1479C6.79972 15.1479 6.79972 15.1479 6.79972 15.1479M6.79972 15.1479L6.79972 15.1479M6.79972 15.1479C6.7997 15.1479 6.79969 15.148 6.7997 15.1479M6.79972 15.1479L6.7997 15.1479M0.520255 8.02299L0.510551 8.01199L0.500221 8.00159L0.500167 8.00172C0.500205 8.00181 0.499999 8.0013 0.499999 8.00029C0.499999 7.99973 0.50006 7.99932 0.500114 7.99908C0.500152 7.99905 0.500175 7.99905 0.500221 7.999L0.506889 7.99228L0.513297 7.98532L6.22695 1.77643L1.32484 7.16379L0.563667 8.00029L1.69465 8.00029L67.5 8.00029L1.69465 8.00029L0.598846 8.00029L1.31699 8.82797L6.32822 14.6036L0.520255 8.02299ZM6.7997 1.14501L6.80353 1.1413L6.7997 1.14501Z" fill="white" stroke="#1B1A19"/>
</svg>
